<?xml version="1.0" encoding="UTF-8"?>
<svg version="1.1" xmlns="http://www.w3.org/2000/svg" width="172" height="165">
<path d="M0 0 C2.83335819 4.25003728 4.65365143 8.04562846 3.78125 13.23046875 C1.93553193 18.91044639 -1.64033545 24.18254264 -6.765625 27.359375 C-11.27970592 29.13156973 -16.59210461 29.11682025 -21.08203125 27.2890625 C-23 26.1875 -23 26.1875 -25.875 24.1875 C-25.875 23.5275 -25.875 22.8675 -25.875 22.1875 C-26.535 22.1875 -27.195 22.1875 -27.875 22.1875 C-31.30459164 17.04311254 -32.85448666 13.38275309 -31.875 7.1875 C-30.07593677 1.04951957 -26.92955611 -2.18296332 -21.875 -5.8125 C-13.11980245 -10.19009878 -6.22608313 -6.6265914 0 0 Z M-20.875 -1.8125 C-22.02696754 1.17846209 -22.02696754 1.17846209 -21.875 4.1875 C-21.215 4.8475 -20.555 5.5075 -19.875 6.1875 C-18.885 6.1875 -17.895 6.1875 -16.875 6.1875 C-16.62105469 5.63320313 -16.36710937 5.07890625 -16.10546875 4.5078125 C-15.76128906 3.78335938 -15.41710937 3.05890625 -15.0625 2.3125 C-14.72605469 1.59320313 -14.38960937 0.87390625 -14.04296875 0.1328125 C-12.875 -1.8125 -12.875 -1.8125 -9.875 -3.8125 C-14.44618629 -5.29141321 -16.96572911 -4.56675904 -20.875 -1.8125 Z M-8.875 3.1875 C-9.205 4.8375 -9.535 6.4875 -9.875 8.1875 C-8.781875 8.6 -7.68875 9.0125 -6.5625 9.4375 C-3.36484058 10.79035591 -1.66846574 12.12805844 0.125 15.1875 C0.47644861 9.7715339 0.47644861 9.7715339 -1 4.6875 C-3.63381415 2.58044868 -5.60111257 2.89648778 -8.875 3.1875 Z M-28.875 6.1875 C-28.78753716 7.62611294 -28.67934652 9.06347508 -28.5625 10.5 C-28.50449219 11.30050781 -28.44648437 12.10101563 -28.38671875 12.92578125 C-27.78314137 15.59350114 -27.04637814 16.55896639 -24.875 18.1875 C-22.24929296 18.43819913 -22.24929296 18.43819913 -19.875 18.1875 C-19.215 16.5375 -18.555 14.8875 -17.875 13.1875 C-18.9475 12.775 -20.02 12.3625 -21.125 11.9375 C-24.39765074 10.55010851 -26.53017162 8.90750092 -28.875 6.1875 Z M-11.875 15.1875 C-12.5246875 16.8271875 -12.5246875 16.8271875 -13.1875 18.5 C-14.31805598 21.35330795 -15.60228555 23.11850225 -17.875 25.1875 C-16.41577307 25.07340407 -14.95759402 24.94584456 -13.5 24.8125 C-12.68789062 24.74289063 -11.87578125 24.67328125 -11.0390625 24.6015625 C-8.67165809 24.35857412 -8.67165809 24.35857412 -6.875 22.1875 C-6.70818891 19.10402174 -6.70818891 19.10402174 -6.875 16.1875 C-8.525 15.8575 -10.175 15.5275 -11.875 15.1875 Z " fill="#DE6F2D" transform="translate(101.875,42.8125)"/>
<path d="M0 0 C2.46052186 3.69078279 3.95839362 6.72244898 4.125 11.1875 C3.25330146 15.18044169 2.02719902 18.28530098 -0.875 21.1875 C-0.98714844 20.58421875 -1.09929687 19.9809375 -1.21484375 19.359375 C-2.43299839 14.31398728 -2.43299839 14.31398728 -5.97265625 10.734375 C-8.25183761 9.74117076 -10.49750826 8.91108444 -12.875 8.1875 C-13.865 7.8575 -14.855 7.5275 -15.875 7.1875 C-16.10192276 3.85929946 -16.19662419 1.76948664 -14.5625 -1.1875 C-12.875 -2.8125 -12.875 -2.8125 -9.875 -2.8125 C-9.875 -3.8025 -9.875 -4.7925 -9.875 -5.8125 C-12.845 -5.8125 -15.815 -5.8125 -18.875 -5.8125 C-18.875 -6.1425 -18.875 -6.4725 -18.875 -6.8125 C-10.53743764 -8.74800555 -5.76057767 -6.14912103 0 0 Z M-8.875 3.1875 C-9.205 4.8375 -9.535 6.4875 -9.875 8.1875 C-8.781875 8.6 -7.68875 9.0125 -6.5625 9.4375 C-3.36484058 10.79035591 -1.66846574 12.12805844 0.125 15.1875 C0.47644861 9.7715339 0.47644861 9.7715339 -1 4.6875 C-3.63381415 2.58044868 -5.60111257 2.89648778 -8.875 3.1875 Z " fill="#E6A43F" transform="translate(101.875,42.8125)"/>
<path d="M0 0 C0.99 -0.66 1.98 -1.32 3 -2 C6.0625 -1.875 6.0625 -1.875 9 -1 C11.44974093 2.40196581 11.2065477 5.67261509 11.125 9.75 C11.10695312 10.92046875 11.08890625 12.0909375 11.0703125 13.296875 C11.04710937 14.18890625 11.02390625 15.0809375 11 16 C10.01 16 9.02 16 8 16 C7.93941406 15.15695313 7.87882812 14.31390625 7.81640625 13.4453125 C7.69072266 11.80175781 7.69072266 11.80175781 7.5625 10.125 C7.48128906 9.03445312 7.40007812 7.94390625 7.31640625 6.8203125 C7.16998297 4.05271029 7.16998297 4.05271029 6 2 C4.35 2.33 2.7 2.66 1 3 C0.34 7.29 -0.32 11.58 -1 16 C-1.99 16 -2.98 16 -4 16 C-4.33 11.38 -4.66 6.76 -5 2 C-6.65 2.33 -8.3 2.66 -10 3 C-10.66 7.29 -11.32 11.58 -12 16 C-12.99 16 -13.98 16 -15 16 C-15 10.39 -15 4.78 -15 -1 C-4.6097561 -2.73170732 -4.6097561 -2.73170732 0 0 Z " fill="#444648" transform="translate(135,81)"/>
<path d="M0 0 C0.99 0 1.98 0 3 0 C3 2.64 3 5.28 3 8 C3.515625 7.649375 4.03125 7.29875 4.5625 6.9375 C8.02765382 5.60474853 10.43042427 6.1562821 14 7 C16.05938216 8.57885966 16.84571211 9.69142423 18 12 C18.48602588 16.29322859 18.46241608 18.32082639 16 21.9375 C11.94288886 24.72676391 9.8470698 24.3973008 5 24 C4.34 24 3.68 24 3 24 C2.01 24 1.02 24 0 24 C0 16.08 0 8.16 0 0 Z M4.6875 10.625 C2.6786808 12.93972306 2.6786808 12.93972306 3.125 16.125 C3.78308824 19.09681373 3.78308824 19.09681373 6 21 C9.09771665 21.32954432 11.17331023 21.45334601 13.9375 19.9375 C15.66665678 16.78433176 14.8590699 14.37491745 14 11 C10.35509793 8.57006529 8.38422811 8.02729917 4.6875 10.625 Z " fill="#454749" transform="translate(61,73)"/>
<path d="M0 0 C0.66 0 1.32 0 2 0 C2.12117188 0.84304687 2.24234375 1.68609375 2.3671875 2.5546875 C2.53476563 3.65039062 2.70234375 4.74609375 2.875 5.875 C3.11863281 7.51082031 3.11863281 7.51082031 3.3671875 9.1796875 C3.76256513 12.11932714 3.76256513 12.11932714 6 14 C8.58354218 14.16687448 8.58354218 14.16687448 11 14 C11.66 12.68 12.32 11.36 13 10 C14.98 10 16.96 10 19 10 C19.35338623 12.96844435 19.5417682 15.15598218 17.88671875 17.734375 C16.64496832 19.20348819 15.32662082 20.60704814 14 22 C14.66 22.66 15.32 23.32 16 24 C9.64948454 24.36637589 9.64948454 24.36637589 6.5625 22.625 C5 21 5 21 5 19 C4.34 19 3.68 19 3 19 C-0.6026782 13.5959827 -1.53157281 10.48518827 -1 4 C-0.5 1.5 -0.5 1.5 0 0 Z " fill="#E4A346" transform="translate(71,46)"/>
<path d="M0 0 C0 5.61 0 11.22 0 17 C-1.32 16.67 -2.64 16.34 -4 16 C-4.33 16.33 -4.66 16.66 -5 17 C-12.22962963 17.59259259 -12.22962963 17.59259259 -15.4375 15.125 C-18.04191134 11.58300058 -18.43241556 9.41063875 -18 5 C-13.14721619 -2.53018177 -8.08976201 -0.85656304 0 0 Z M-13.3125 3.625 C-15.3213192 5.93972306 -15.3213192 5.93972306 -14.875 9.125 C-14.21691176 12.09681373 -14.21691176 12.09681373 -12 14 C-8.90228335 14.32954432 -6.82668977 14.45334601 -4.0625 12.9375 C-2.33334322 9.78433176 -3.1409301 7.37491745 -4 4 C-7.64490207 1.57006529 -9.61577189 1.02729917 -13.3125 3.625 Z " fill="#464749" transform="translate(117,80)"/>
<path d="M0 0 C0.89203125 0.11085937 1.7840625 0.22171875 2.703125 0.3359375 C3.37859375 0.43132813 4.0540625 0.52671875 4.75 0.625 C4.42 1.285 4.09 1.945 3.75 2.625 C2.079375 2.8415625 2.079375 2.8415625 0.375 3.0625 C-3.1199702 3.36123441 -3.1199702 3.36123441 -5.25 4.875 C-6.51252612 6.6828417 -6.51252612 6.6828417 -5.9375 9.3125 C-5.5971875 10.4571875 -5.5971875 10.4571875 -5.25 11.625 C-4.26 11.955 -3.27 12.285 -2.25 12.625 C-1.92 11.635 -1.59 10.645 -1.25 9.625 C-1.25 11.605 -1.25 13.585 -1.25 15.625 C-2.24 15.955 -3.23 16.285 -4.25 16.625 C-4.58 17.285 -4.91 17.945 -5.25 18.625 C-4.26 18.955 -3.27 19.285 -2.25 19.625 C-8.31809922 19.38703532 -8.31809922 19.38703532 -10.79296875 17.36328125 C-13.12383046 14.64963873 -14.89796448 12.20747914 -15.25 8.625 C-14.17578125 6.7734375 -14.17578125 6.7734375 -12.5625 5 C-12.04300781 4.40960938 -11.52351563 3.81921875 -10.98828125 3.2109375 C-7.35477712 -0.10412469 -4.84879227 -0.63799898 0 0 Z " fill="#C85339" transform="translate(87.25,36.375)"/>
<path d="M0 0 C0.99 0.33 1.98 0.66 3 1 C3.33 2.65 3.66 4.3 4 6 C4.886875 5.896875 5.77375 5.79375 6.6875 5.6875 C10 6 10 6 12.875 7.6875 C16.1789229 12.83773276 15.39240655 18.04414061 15 24 C14.01 24 13.02 24 12 24 C11.93941406 23.15695313 11.87882812 22.31390625 11.81640625 21.4453125 C11.73261719 20.34960938 11.64882812 19.25390625 11.5625 18.125 C11.48128906 17.03445312 11.40007812 15.94390625 11.31640625 14.8203125 C11.16998297 12.05271029 11.16998297 12.05271029 10 10 C6.70924004 10.37904208 6.70924004 10.37904208 4 12 C3.76572222 14.01594582 3.58663876 16.038474 3.4375 18.0625 C3.35371094 19.16722656 3.26992187 20.27195312 3.18359375 21.41015625 C3.12300781 22.26480469 3.06242187 23.11945313 3 24 C2.01 24 1.02 24 0 24 C0 16.08 0 8.16 0 0 Z " fill="#454648" transform="translate(82,73)"/>
<path d="M0 0 C0.99 0 1.98 0 3 0 C3.06058594 0.85464844 3.12117188 1.70929688 3.18359375 2.58984375 C3.26738281 3.69457031 3.35117187 4.79929687 3.4375 5.9375 C3.51871094 7.03964844 3.59992187 8.14179687 3.68359375 9.27734375 C3.70418084 11.91109903 3.70418084 11.91109903 5 13 C7.5 13.16666667 7.5 13.16666667 10 13 C11.81115956 11.18884044 11.38199448 8.38721773 11.5625 5.9375 C11.64628906 4.83277344 11.73007812 3.72804688 11.81640625 2.58984375 C11.87699219 1.73519531 11.93757813 0.88054687 12 0 C12.99 0 13.98 0 15 0 C15 5.61 15 11.22 15 17 C3.64631957 17.36624776 3.64631957 17.36624776 1.125 15.9375 C-0.62336781 12.9264221 -0.28209401 10.24941563 -0.1875 6.8125 C-0.16042969 5.54019531 -0.13335937 4.26789063 -0.10546875 2.95703125 C-0.07066406 1.98121094 -0.03585938 1.00539063 0 0 Z " fill="#474849" transform="translate(43,80)"/>
<path d="M0 0 C1.3125 2.0625 1.3125 2.0625 2 4 C-2 4 -2 4 -4 3 C-4.33 3.99 -4.66 4.98 -5 6 C-4.21625 6.12375 -3.4325 6.2475 -2.625 6.375 C0 7 0 7 2 9 C1.42307692 15.57692308 1.42307692 15.57692308 0 17 C-3.4375 17.25 -3.4375 17.25 -7 17 C-9 14 -9 14 -9 11 C-8.01 11 -7.02 11 -6 11 C-5.67 11.66 -5.34 12.32 -5 13 C-4.01 13 -3.02 13 -2 13 C-2 12.34 -2 11.68 -2 11 C-2.969375 10.360625 -3.93875 9.72125 -4.9375 9.0625 C-8 7 -8 7 -9 4 C-7.11842378 -0.9210455 -4.9685278 -1.61477153 0 0 Z " fill="#474749" transform="translate(39,80)"/>
<path d="M0 0 C0.66 0.33 1.32 0.66 2 1 C2 3.31 2 5.62 2 8 C2.99 8 3.98 8 5 8 C5.33 6.68 5.66 5.36 6 4 C9.75 2.875 9.75 2.875 12 4 C12.33 2.68 12.66 1.36 13 0 C13.66 0 14.32 0 15 0 C15 0.99 15 1.98 15 3 C16.32 3.33 17.64 3.66 19 4 C19 5.98 19 7.96 19 10 C18.34 10 17.68 10 17 10 C17 8.68 17 7.36 17 6 C16.34 6 15.68 6 15 6 C15 7.32 15 8.64 15 10 C9.72 10 4.44 10 -1 10 C-1.09765625 3.06640625 -1.09765625 3.06640625 -1 1 C-0.67 0.67 -0.34 0.34 0 0 Z M8 6 C8 6.66 8 7.32 8 8 C8.66 8 9.32 8 10 8 C10 7.34 10 6.68 10 6 C9.34 6 8.68 6 8 6 Z " fill="#3D3E41" transform="translate(83,102)"/>
<path d="M0 0 C1.74796875 -0.02126953 1.74796875 -0.02126953 3.53125 -0.04296875 C6.5 0.1875 6.5 0.1875 8.5 2.1875 C8.125 4.8125 8.125 4.8125 7.5 7.1875 C5.85 7.1875 4.2 7.1875 2.5 7.1875 C2.17 5.8675 1.84 4.5475 1.5 3.1875 C0.84 3.1875 0.18 3.1875 -0.5 3.1875 C-0.5 4.5075 -0.5 5.8275 -0.5 7.1875 C-1.16 7.1875 -1.82 7.1875 -2.5 7.1875 C-2.83 6.8575 -3.16 6.5275 -3.5 6.1875 C-3.5 7.5075 -3.5 8.8275 -3.5 10.1875 C-5.15 10.1875 -6.8 10.1875 -8.5 10.1875 C-9.66909807 6.68020578 -9.35056945 4.74442677 -8.5 1.1875 C-5.65161879 -0.2366906 -3.17212092 0.01754492 0 0 Z M-6.5 2.1875 C-5.5 4.1875 -5.5 4.1875 -5.5 4.1875 Z M3.5 3.1875 C3.83 3.8475 4.16 4.5075 4.5 5.1875 C5.16 5.1875 5.82 5.1875 6.5 5.1875 C6.5 4.5275 6.5 3.8675 6.5 3.1875 C5.51 3.1875 4.52 3.1875 3.5 3.1875 Z " fill="#38393A" transform="translate(123.5,104.8125)"/>
<path d="M0 0 C0.99 0.495 0.99 0.495 2 1 C2 2.32 2 3.64 2 5 C2.66 5 3.32 5 4 5 C4 3.35 4 1.7 4 0 C9.43806647 -0.36253776 9.43806647 -0.36253776 11.9375 1.25 C13 3 13 3 12.875 5.125 C12.441875 6.053125 12.441875 6.053125 12 7 C11.01 7.33 10.02 7.66 9 8 C8.67 8.66 8.34 9.32 8 10 C7.34 10 6.68 10 6 10 C6 9.01 6 8.02 6 7 C4.02 7 2.04 7 0 7 C0 4.69 0 2.38 0 0 Z M8 3 C8 3.66 8 4.32 8 5 C8.66 5 9.32 5 10 5 C10 4.34 10 3.68 10 3 C9.34 3 8.68 3 8 3 Z " fill="#39393B" transform="translate(133,105)"/>
<path d="M0 0 C-0.33 0.66 -0.66 1.32 -1 2 C-2.670625 2.2165625 -2.670625 2.2165625 -4.375 2.4375 C-7.8566771 2.69959338 -7.8566771 2.69959338 -9.75 4.25 C-11.12346597 6.10443337 -11.12346597 6.10443337 -12.5 8.6875 C-12.995 9.450625 -13.49 10.21375 -14 11 C-14.99 11 -15.98 11 -17 11 C-16.835 10.236875 -16.67 9.47375 -16.5 8.6875 C-15.90854604 5.96403764 -15.90854604 5.96403764 -16 3 C-10.88805797 -1.84289245 -6.66309633 -1.21147206 0 0 Z " fill="#AE413D" transform="translate(92,37)"/>
<path d="M0 0 C0.66 0 1.32 0 2 0 C1.34 3.3 0.68 6.6 0 10 C-6.15234375 10.09765625 -6.15234375 10.09765625 -8 10 C-9 9 -9 9 -9.0625 6.4375 C-9.041875 5.633125 -9.02125 4.82875 -9 4 C-5.98968256 3.06576355 -5.13349732 2.95550089 -2 4 C-1.34 2.68 -0.68 1.36 0 0 Z M-7 6 C-7 6.66 -7 7.32 -7 8 C-6.01 7.67 -5.02 7.34 -4 7 C-4.99 6.67 -5.98 6.34 -7 6 Z " fill="#3A3D3C" transform="translate(77,102)"/>
<path d="M0 0 C0.66 0 1.32 0 2 0 C3.36191995 2.7238399 3.06161289 4.98096827 3 8 C3 8.99 3 9.98 3 11 C-0.21182149 12.90608098 -2.53882603 13.22266247 -6.25 13.125 C-7.14203125 13.10695313 -8.0340625 13.08890625 -8.953125 13.0703125 C-9.96632813 13.03550781 -9.96632813 13.03550781 -11 13 C-8.76224766 9.6433715 -8.06679952 9.42003986 -4.375 8.3125 C-3.14910156 7.93544922 -3.14910156 7.93544922 -1.8984375 7.55078125 C-1.27195312 7.36902344 -0.64546875 7.18726562 0 7 C0 4.69 0 2.38 0 0 Z " fill="#C27B56" transform="translate(94,58)"/>
<path d="M0 0 C3.5625 0.25 3.5625 0.25 6.5625 2.25 C6.5625 2.91 6.5625 3.57 6.5625 4.25 C3.9225 4.58 1.2825 4.91 -1.4375 5.25 C-1.7675 6.24 -2.0975 7.23 -2.4375 8.25 C-3.4275 8.25 -4.4175 8.25 -5.4375 8.25 C-5.5625 5.375 -5.5625 5.375 -5.4375 2.25 C-3.4375 0.25 -3.4375 0.25 0 0 Z " fill="#F0A525" transform="translate(93.4375,40.75)"/>
<path d="M0 0 C0.66 0 1.32 0 2 0 C2.33 0.66 2.66 1.32 3 2 C5.02463255 2.65213292 5.02463255 2.65213292 7 3 C7.33 4.98 7.66 6.96 8 9 C5.36 9 2.72 9 0 9 C0 6.03 0 3.06 0 0 Z " fill="#3A3A3D" transform="translate(103,103)"/>
<path d="M0 0 C0.495 0.556875 0.99 1.11375 1.5 1.6875 C1.17 2.3475 0.84 3.0075 0.5 3.6875 C-0.5209375 2.6975 -0.5209375 2.6975 -1.5625 1.6875 C-5.19413218 -0.78510063 -7.1867465 -0.79175039 -11.5 -0.3125 C-12.49 0.3475 -13.48 1.0075 -14.5 1.6875 C-13.84 0.3675 -13.18 -0.9525 -12.5 -2.3125 C-11.51 -2.3125 -10.52 -2.3125 -9.5 -2.3125 C-9.5 -3.3025 -9.5 -4.2925 -9.5 -5.3125 C-12.47 -5.3125 -15.44 -5.3125 -18.5 -5.3125 C-18.5 -5.6425 -18.5 -5.9725 -18.5 -6.3125 C-10.16689353 -8.24697114 -6.10575309 -5.6478216 0 0 Z " fill="#D7945C" transform="translate(101.5,42.3125)"/>
<path d="M0 0 C0.66 0 1.32 0 2 0 C3.32 3.3 4.64 6.6 6 10 C5.01 10 4.02 10 3 10 C3 9.34 3 8.68 3 8 C1.68 8 0.36 8 -1 8 C-1 8.66 -1 9.32 -1 10 C-1.99 9.67 -2.98 9.34 -4 9 C-2.68 6.03 -1.36 3.06 0 0 Z " fill="#353638" transform="translate(34,102)"/>
<path d="M0 0 C1.65 0 3.3 0 5 0 C4.34 0.66 3.68 1.32 3 2 C2.855625 2.804375 2.71125 3.60875 2.5625 4.4375 C1.92019042 7.36357699 1.4990217 8.36270992 -1 10 C-4 10.375 -4 10.375 -7 10 C-8.875 8.5 -8.875 8.5 -10 7 C-8.72125 6.773125 -7.4425 6.54625 -6.125 6.3125 C-3.93067868 5.83899916 -3.93067868 5.83899916 -2 5 C-0.40311361 2.51686936 -0.40311361 2.51686936 0 0 Z " fill="#E68524" transform="translate(85,56)"/>
<path d="M0 0 C0.66 0 1.32 0 2 0 C2.33 0.66 2.66 1.32 3 2 C3.99 2 4.98 2 6 2 C6.33 2.66 6.66 3.32 7 4 C6.34 4 5.68 4 5 4 C5 4.99 5 5.98 5 7 C5.66 7 6.32 7 7 7 C7 7.66 7 8.32 7 9 C4.69 9 2.38 9 0 9 C0 6.03 0 3.06 0 0 Z " fill="#3A3C3E" transform="translate(57,103)"/>
<path d="M0 0 C5.53846154 0.61538462 5.53846154 0.61538462 7.875 2.5625 C8.431875 3.2740625 8.431875 3.2740625 9 4 C9.66 3.34 10.32 2.68 11 2 C12.1875 4.125 12.1875 4.125 13 7 C11.625 10.3125 11.625 10.3125 10 13 C8.86499291 10.81105775 7.94534761 8.813271 7.25 6.4375 C5.54042492 3.10382859 3.38374567 2.39763408 0 1 C0 0.67 0 0.34 0 0 Z " fill="#D58B5E" transform="translate(92,51)"/>
<path d="M0 0 C0.33 0.99 0.66 1.98 1 3 C-0.258125 3.020625 -1.51625 3.04125 -2.8125 3.0625 C-3.52019531 3.07410156 -4.22789063 3.08570313 -4.95703125 3.09765625 C-7 3 -7 3 -10 2 C-9.67 1.01 -9.34 0.02 -9 -1 C-5.19881294 -2.26706235 -3.6149628 -1.57172296 0 0 Z " fill="#D45323" transform="translate(92,53)"/>
<path d="M0 0 C0.6875 3.3125 0.6875 3.3125 1 7 C-0.4375 8.9375 -0.4375 8.9375 -2 10 C-2.99 9.67 -3.98 9.34 -5 9 C-4.67 8.67 -4.34 8.34 -4 8 C-3.95907063 5.66702567 -3.95758277 3.33294775 -4 1 C-2 0 -2 0 0 0 Z " fill="#C54F30" transform="translate(100,58)"/>
<path d="M0 0 C0.66 0 1.32 0 2 0 C1.75675684 4.2162147 1.62862242 6.35483489 -1.375 9.4375 C-4 11 -4 11 -7 11 C-7 10.34 -7 9.68 -7 9 C-6.01 8.67 -5.02 8.34 -4 8 C-2.76722873 6.13977928 -2.76722873 6.13977928 -1.8125 3.9375 C-1.46832031 3.20402344 -1.12414062 2.47054687 -0.76953125 1.71484375 C-0.51558594 1.14894531 -0.26164062 0.58304688 0 0 Z " fill="#EDB93B" transform="translate(88,57)"/>
<path d="M0 0 C1.32 0.66 2.64 1.32 4 2 C3.67 3.65 3.34 5.3 3 7 C1.35 7 -0.3 7 -2 7 C-2.6875 5.1875 -2.6875 5.1875 -3 3 C-1.5625 1.25 -1.5625 1.25 0 0 Z M-1 3 C-0.67 3.66 -0.34 4.32 0 5 C0.66 5 1.32 5 2 5 C2 4.34 2 3.68 2 3 C1.01 3 0.02 3 -1 3 Z " fill="#3C4243" transform="translate(128,105)"/>
<path d="M0 0 C1.65 0.33 3.3 0.66 5 1 C4.67 2.65 4.34 4.3 4 6 C2.35 5.67 0.7 5.34 -1 5 C-0.67 3.35 -0.34 1.7 0 0 Z " fill="#454545" transform="translate(147,76)"/>
<path d="M0 0 C1.67542976 0.28604898 3.34385343 0.61781233 5 1 C5 2.98 5 4.96 5 7 C4.34 7 3.68 7 3 7 C2.67 5.68 2.34 4.36 2 3 C1.67 4.32 1.34 5.64 1 7 C0.34 7 -0.32 7 -1 7 C-1.04254356 5.00045254 -1.04080783 2.99958364 -1 1 C-0.67 0.67 -0.34 0.34 0 0 Z " fill="#363839" transform="translate(51,105)"/>
<path d="M0 0 C0.99 0.33 1.98 0.66 3 1 C3.66 0.67 4.32 0.34 5 0 C5 2.31 5 4.62 5 7 C3.35 7 1.7 7 0 7 C-1.04449911 3.86650268 -0.93423645 3.01031744 0 0 Z " fill="#303234" transform="translate(44,105)"/>
<path d="M0 0 C0.99 0.33 1.98 0.66 3 1 C3.33 3.64 3.66 6.28 4 9 C2.68 9.33 1.36 9.66 0 10 C0 6.7 0 3.4 0 0 Z " fill="#3E4143" transform="translate(82,73)"/>
<path d="M0 0 C2.61627165 2.61627165 2.77669287 4.35265021 3 8 C2.01 8.99 1.02 9.98 0 11 C-0.99 7.7 -1.98 4.4 -3 1 C-2.01 0.67 -1.02 0.34 0 0 Z " fill="#E3AA56" transform="translate(103,46)"/>
<path d="M0 0 C0.66 0 1.32 0 2 0 C2.33 3.3 2.66 6.6 3 10 C1.68 10.33 0.36 10.66 -1 11 C-1.14285714 3.57142857 -1.14285714 3.57142857 0 0 Z " fill="#DDA15F" transform="translate(71,46)"/>
<path d="M0 0 C0.66 0 1.32 0 2 0 C3.36191995 2.7238399 3.06161289 4.98096827 3 8 C3 8.99 3 9.98 3 11 C1.68 11.33 0.36 11.66 -1 12 C-1 9 -1 9 0 7 C0.04022391 4.6670134 0.04320247 2.33293334 0 0 Z " fill="#CB6A45" transform="translate(94,58)"/>
<path d="M0 0 C1.98 0.66 3.96 1.32 6 2 C6 2.66 6 3.32 6 4 C8.97 4.495 8.97 4.495 12 5 C12 5.33 12 5.66 12 6 C8.8125 6.3125 8.8125 6.3125 5 6 C2.0625 3.5625 2.0625 3.5625 0 1 C0 0.67 0 0.34 0 0 Z " fill="#D99866" transform="translate(75,64)"/>
<path d="M0 0 C2.3125 -0.3125 2.3125 -0.3125 5 0 C6.8125 2.5 6.8125 2.5 8 5 C4.61976483 5 2.16531063 4.12544378 -1 3 C-0.67 2.01 -0.34 1.02 0 0 Z " fill="#4B4B4D" transform="translate(126,79)"/>
<path d="M0 0 C1.65 0 3.3 0 5 0 C4.34 0.66 3.68 1.32 3 2 C2.35232207 4.57061311 2.35232207 4.57061311 2 7 C0.68 7.33 -0.64 7.66 -2 8 C-1.33333333 5.33333333 -0.66666667 2.66666667 0 0 Z " fill="#EFA524" transform="translate(85,56)"/>
<path d="M0 0 C0.66 0 1.32 0 2 0 C1.67 2.31 1.34 4.62 1 7 C-0.32 7.33 -1.64 7.66 -3 8 C-2.45276317 4.62537285 -1.9451 2.91765 0 0 Z " fill="#BF2B21" transform="translate(78,40)"/>
<path d="M0 0 C3.375 0.3125 3.375 0.3125 7 1 C7.66 1.99 8.32 2.98 9 4 C6.36 4 3.72 4 1 4 C0.67 2.68 0.34 1.36 0 0 Z " fill="#434445" transform="translate(103,93)"/>
<path d="M0 0 C1.485 0.99 1.485 0.99 3 2 C3.1875 5.125 3.1875 5.125 3 8 C2.01 8 1.02 8 0 8 C0 5.36 0 2.72 0 0 Z " fill="#3C3D40" transform="translate(131,89)"/>
<path d="M0 0 C-0.33 1.65 -0.66 3.3 -1 5 C-1.66 4.67 -2.32 4.34 -3 4 C-2.67 3.34 -2.34 2.68 -2 2 C-2.99 2.33 -3.98 2.66 -5 3 C-5.33 2.01 -5.66 1.02 -6 0 C-3.50907189 -1.24546405 -2.58919267 -0.7767578 0 0 Z " fill="#434345" transform="translate(95,106)"/>
<path d="M0 0 C0.66 1.32 1.32 2.64 2 4 C0.68 5.65 -0.64 7.3 -2 9 C-2.66 7.35 -3.32 5.7 -4 4 C-3.01 3.67 -2.02 3.34 -1 3 C-0.67 2.01 -0.34 1.02 0 0 Z " fill="#505153" transform="translate(86,79)"/>
<path d="M0 0 C0.66 0.33 1.32 0.66 2 1 C1.67 2.32 1.34 3.64 1 5 C-0.32 5.33 -1.64 5.66 -3 6 C-1.125 1.125 -1.125 1.125 0 0 Z " fill="#4D4E4F" transform="translate(102,81)"/>
<path d="M0 0 C0.99 0.33 1.98 0.66 3 1 C2.34 2.98 1.68 4.96 1 7 C0.34 7 -0.32 7 -1 7 C-1.625 5.1875 -1.625 5.1875 -2 3 C-1.34 2.01 -0.68 1.02 0 0 Z " fill="#CC6248" transform="translate(74,42)"/>
<path d="M0 0 C5.75 -0.125 5.75 -0.125 8 1 C7.67 1.66 7.34 2.32 7 3 C5.68 3 4.36 3 3 3 C3 2.34 3 1.68 3 1 C2.01 0.67 1.02 0.34 0 0 Z " fill="#4D5051" transform="translate(69,80)"/>
<path d="M0 0 C0.99 0.99 1.98 1.98 3 3 C-0.625 6 -0.625 6 -4 6 C-4 5.34 -4 4.68 -4 4 C-3.01 3.67 -2.02 3.34 -1 3 C-0.67 2.01 -0.34 1.02 0 0 Z " fill="#E5AB41" transform="translate(85,62)"/>
<path d="" fill="#FFFFFF" transform="translate(0,0)"/>
<path d="" fill="#FFFFFF" transform="translate(0,0)"/>
<path d="" fill="#FFFFFF" transform="translate(0,0)"/>
<path d="" fill="#FFFFFF" transform="translate(0,0)"/>
<path d="" fill="#FFFFFF" transform="translate(0,0)"/>
<path d="" fill="#FFFFFF" transform="translate(0,0)"/>
<path d="" fill="#FFFFFF" transform="translate(0,0)"/>
<path d="" fill="#FFFFFF" transform="translate(0,0)"/>
<path d="" fill="#FFFFFF" transform="translate(0,0)"/>
<path d="" fill="#FFFFFF" transform="translate(0,0)"/>
<path d="" fill="#FFFFFF" transform="translate(0,0)"/>
<path d="" fill="#FFFFFF" transform="translate(0,0)"/>
<path d="" fill="#FFFFFF" transform="translate(0,0)"/>
<path d="" fill="#FFFFFF" transform="translate(0,0)"/>
<path d="" fill="#FFFFFF" transform="translate(0,0)"/>
<path d="" fill="#FFFFFF" transform="translate(0,0)"/>
<path d="" fill="#FFFFFF" transform="translate(0,0)"/>
<path d="" fill="#FFFFFF" transform="translate(0,0)"/>
<path d="" fill="#FFFFFF" transform="translate(0,0)"/>
<path d="" fill="#FFFFFF" transform="translate(0,0)"/>
<path d="" fill="#FFFFFF" transform="translate(0,0)"/>
<path d="" fill="#FFFFFF" transform="translate(0,0)"/>
<path d="" fill="#FFFFFF" transform="translate(0,0)"/>
<path d="" fill="#FFFFFF" transform="translate(0,0)"/>
<path d="" fill="#FFFFFF" transform="translate(0,0)"/>
<path d="" fill="#FFFFFF" transform="translate(0,0)"/>
<path d="" fill="#FFFFFF" transform="translate(0,0)"/>
<path d="" fill="#FFFFFF" transform="translate(0,0)"/>
<path d="" fill="#FFFFFF" transform="translate(0,0)"/>
<path d="" fill="#FFFFFF" transform="translate(0,0)"/>
<path d="" fill="#FFFFFF" transform="translate(0,0)"/>
<path d="" fill="#FFFFFF" transform="translate(0,0)"/>
<path d="" fill="#FFFFFF" transform="translate(0,0)"/>
<path d="" fill="#FFFFFF" transform="translate(0,0)"/>
<path d="" fill="#FFFFFF" transform="translate(0,0)"/>
<path d="" fill="#FFFFFF" transform="translate(0,0)"/>
<path d="" fill="#FFFFFF" transform="translate(0,0)"/>
<path d="" fill="#FFFFFF" transform="translate(0,0)"/>
<path d="" fill="#FFFFFF" transform="translate(0,0)"/>
<path d="" fill="#FFFFFF" transform="translate(0,0)"/>
<path d="" fill="#FFFFFF" transform="translate(0,0)"/>
<path d="" fill="#FFFFFF" transform="translate(0,0)"/>
<path d="" fill="#FFFFFF" transform="translate(0,0)"/>
<path d="" fill="#FFFFFF" transform="translate(0,0)"/>
<path d="" fill="#FFFFFF" transform="translate(0,0)"/>
<path d="" fill="#FFFFFF" transform="translate(0,0)"/>
<path d="" fill="#FFFFFF" transform="translate(0,0)"/>
<path d="" fill="#FFFFFF" transform="translate(0,0)"/>
<path d="" fill="#FFFFFF" transform="translate(0,0)"/>
<path d="" fill="#FFFFFF" transform="translate(0,0)"/>
<path d="" fill="#FFFFFF" transform="translate(0,0)"/>
<path d="" fill="#FFFFFF" transform="translate(0,0)"/>
<path d="" fill="#FFFFFF" transform="translate(0,0)"/>
<path d="" fill="#FFFFFF" transform="translate(0,0)"/>
<path d="" fill="#FFFFFF" transform="translate(0,0)"/>
<path d="" fill="#FFFFFF" transform="translate(0,0)"/>
<path d="" fill="#FFFFFF" transform="translate(0,0)"/>
<path d="" fill="#FFFFFF" transform="translate(0,0)"/>
<path d="" fill="#FFFFFF" transform="translate(0,0)"/>
<path d="" fill="#FFFFFF" transform="translate(0,0)"/>
<path d="" fill="#FFFFFF" transform="translate(0,0)"/>
<path d="" fill="#FFFFFF" transform="translate(0,0)"/>
<path d="" fill="#FFFFFF" transform="translate(0,0)"/>
<path d="" fill="#FFFFFF" transform="translate(0,0)"/>
<path d="" fill="#FFFFFF" transform="translate(0,0)"/>
<path d="" fill="#FFFFFF" transform="translate(0,0)"/>
<path d="" fill="#FFFFFF" transform="translate(0,0)"/>
<path d="" fill="#FFFFFF" transform="translate(0,0)"/>
<path d="" fill="#FFFFFF" transform="translate(0,0)"/>
<path d="" fill="#FFFFFF" transform="translate(0,0)"/>
<path d="" fill="#FFFFFF" transform="translate(0,0)"/>
<path d="" fill="#FFFFFF" transform="translate(0,0)"/>
<path d="" fill="#FFFFFF" transform="translate(0,0)"/>
<path d="" fill="#FFFFFF" transform="translate(0,0)"/>
<path d="" fill="#FFFFFF" transform="translate(0,0)"/>
<path d="" fill="#FFFFFF" transform="translate(0,0)"/>
<path d="" fill="#FFFFFF" transform="translate(0,0)"/>
<path d="" fill="#FFFFFF" transform="translate(0,0)"/>
<path d="" fill="#FFFFFF" transform="translate(0,0)"/>
<path d="" fill="#FFFFFF" transform="translate(0,0)"/>
<path d="" fill="#FFFFFF" transform="translate(0,0)"/>
<path d="" fill="#FFFFFF" transform="translate(0,0)"/>
<path d="" fill="#FFFFFF" transform="translate(0,0)"/>
<path d="" fill="#FFFFFF" transform="translate(0,0)"/>
<path d="" fill="#FFFFFF" transform="translate(0,0)"/>
<path d="" fill="#FFFFFF" transform="translate(0,0)"/>
</svg>
